HIERARCHY
ROOT Hips
{
	OFFSET 0.000000 0.000000 0.000000
	CHANNELS 6 Xposition Yposition Zposition Xrotation Yrotation Zrotation
	JOINT LeftUpLeg
	{
		OFFSET 3.317160 0.000000 0.000000
		CHANNELS 6 Xposition Yposition Zposition Xrotation Yrotation Zrotation
		JOINT LeftLeg
		{
			OFFSET 0.000000 -16.621309 0.000000
			CHANNELS 6 Xposition Yposition Zposition Xrotation Yrotation Zrotation
			JOINT LeftFoot
			{
				OFFSET 0.000000 -16.132090 0.000000
				CHANNELS 6 Xposition Yposition Zposition Xrotation Yrotation Zrotation
				JOINT LeftToeBase
				{
					OFFSET 0.000000 -1.705429 6.364750
					CHANNELS 6 Xposition Yposition Zposition Xrotation Yrotation Zrotation
					End Site
					{
						OFFSET 0.000000 0.000000 2.952750
					}
				}
			}
		}
	}
	JOINT RightUpLeg
	{
		OFFSET -3.317160 0.000000 0.000000
		CHANNELS 6 Xposition Yposition Zposition Xrotation Yrotation Zrotation
		JOINT RightLeg
		{
			OFFSET 0.000000 -16.621309 0.000000
			CHANNELS 6 Xposition Yposition Zposition Xrotation Yrotation Zrotation
			JOINT RightFoot
			{
				OFFSET 0.000000 -16.132090 0.000000
				CHANNELS 6 Xposition Yposition Zposition Xrotation Yrotation Zrotation
				JOINT RightToeBase
				{
					OFFSET 0.000000 -1.705429 6.364750
					CHANNELS 6 Xposition Yposition Zposition Xrotation Yrotation Zrotation
					End Site
					{
						OFFSET 0.000000 0.000000 2.952750
					}
				}
			}
		}
	}
	JOINT Spine
	{
		OFFSET 0.000000 0.039370 0.000000
		CHANNELS 6 Xposition Yposition Zposition Xrotation Yrotation Zrotation
		JOINT Spine1
		{
			OFFSET 0.000000 9.216790 0.000000
			CHANNELS 6 Xposition Yposition Zposition Xrotation Yrotation Zrotation
			JOINT Neck
			{
				OFFSET 0.000000 8.819270 0.000000
				CHANNELS 3 Xrotation Yrotation Zrotation
				JOINT Head
				{
					OFFSET 0.000000 6.846361 0.000000
					CHANNELS 6 Xposition Yposition Zposition Xrotation Yrotation Zrotation
					End Site
					{
						OFFSET 0.000000 4.527550 0.000000
					}
				}
			}
			JOINT LeftShoulder
			{
				OFFSET 0.000000 8.819270 0.000000
				CHANNELS 3 Xrotation Yrotation Zrotation
				JOINT LeftArm
				{
					OFFSET 7.313730 -0.000031 0.000000
					CHANNELS 6 Xposition Yposition Zposition Xrotation Yrotation Zrotation
					JOINT LeftForeArm
					{
						OFFSET 10.822620 -0.000040 0.000000
						CHANNELS 6 Xposition Yposition Zposition Xrotation Yrotation Zrotation
						JOINT LeftHand
						{
							OFFSET 10.147810 -0.000040 0.000000
							CHANNELS 6 Xposition Yposition Zposition Xrotation Yrotation Zrotation
							JOINT LeftHandThumb
							{
								OFFSET 0.000000 0.000000 0.000000
								CHANNELS 6 Xposition Yposition Zposition Xrotation Yrotation Zrotation
								End Site
								{
									OFFSET 0.000000 0.000000 3.937000
								}
							}
							JOINT L_Wrist_End
							{
								OFFSET 3.937000 -0.000010 0.000000
								CHANNELS 6 Xposition Yposition Zposition Xrotation Yrotation Zrotation
								End Site
								{
									OFFSET 0.000000 0.100000 0.000000
								}
							}
						}
					}
				}
			}
			JOINT RightShoulder
			{
				OFFSET 0.000000 8.819270 0.000000
				CHANNELS 3 Xrotation Yrotation Zrotation
				JOINT RightArm
				{
					OFFSET -7.313730 -0.000031 0.000000
					CHANNELS 6 Xposition Yposition Zposition Xrotation Yrotation Zrotation
					JOINT RightForeArm
					{
						OFFSET -10.822620 -0.000040 0.000000
						CHANNELS 6 Xposition Yposition Zposition Xrotation Yrotation Zrotation
						JOINT RightHand
						{
							OFFSET -10.147810 -0.000040 0.000000
							CHANNELS 6 Xposition Yposition Zposition Xrotation Yrotation Zrotation
							JOINT RightHandThumb
							{
								OFFSET 0.000000 0.000000 0.000000
								CHANNELS 6 Xposition Yposition Zposition Xrotation Yrotation Zrotation
								End Site
								{
									OFFSET 0.000000 0.000000 3.937000
								}
							}
							JOINT R_Wrist_End
							{
								OFFSET -5.393688 -0.000019 0.000000
								CHANNELS 6 Xposition Yposition Zposition Xrotation Yrotation Zrotation
								End Site
								{
									OFFSET 0.000000 0.100000 0.000000
								}
							}
						}
					}
				}
			}
		}
	}
}
MOTION
Frames: 4
Frame Time: 0.041667
0.625649 34.474319 0.593880 1.027157 -0.004097 -3.080544 3.317155 0.000017 -0.000002 -4.738755 -3.012648 8.294625 -0.000001 -16.621296 -0.000000 15.326634 8.136074 0.617506 -0.000015 -16.132057 -0.000002 -10.217293 2.722842 -7.568319 -0.000000 -1.705429 6.364749 -0.000001 0.000001 -0.000000 -3.317157 0.000008 -0.000001 -1.195187 7.944577 2.873829 -0.000001 -16.621309 -0.000001 5.449039 -14.444484 2.474965 -0.000045 -16.132078 -0.000110 -5.518967 -2.677238 -0.848942 -0.000001 -1.705433 6.364744 0.031993 -0.048307 0.009079 -0.000000 0.039373 0.000001 -0.000018 -0.000000 -0.000000 -0.031296 9.217053 -0.000931 -0.228235 -1.523805 2.103558 -0.140385 -0.373058 1.449403 -0.000001 6.846334 -0.000001 -1.921611 -0.034251 0.026633 -1.444062 -3.627558 -19.462074 7.313724 -0.000008 -0.000004 -9.630047 15.459954 -60.925226 10.822618 -0.000041 -0.000001 -0.466253 -16.579063 -0.143517 10.147810 -0.000038 -0.000001 0.000000 -0.000003 0.000001 0.000004 -0.000000 -0.000001 0.000002 0.000002 -0.000001 3.937004 -0.000008 -0.000002 -0.000001 0.000003 -0.000001 -1.449787 5.331629 20.049375 -7.313725 -0.000009 0.000001 -1.999019 -13.983603 59.900042 -10.822625 -0.000002 -0.000001 -0.385251 19.389519 0.206871 -10.147810 -0.000040 0.000000 0.000000 -0.000003 -0.000001 -0.000004 -0.000001 -0.000000 0.000001 -0.000003 0.000001 -5.393692 -0.000016 0.000000 0.000001 -0.000002 -0.000000 
0.623257 34.474319 0.589890 1.037777 -0.004074 -3.075129 3.317163 0.000013 -0.000001 -4.757440 -3.010722 8.287098 0.000001 -16.621300 0.000000 15.319853 8.123629 0.631595 -0.000019 -16.132072 -0.000005 -10.204561 2.721527 -7.576055 0.000001 -1.705425 6.364750 0.000001 0.000001 0.000000 -3.317161 0.000007 -0.000000 -1.228977 7.928804 2.877831 -0.000002 -16.621319 0.000000 5.485446 -14.478685 2.468811 -0.000046 -16.132057 -0.000100 -5.530207 -2.642150 -0.842418 0.000000 -1.705437 6.364742 0.028980 -0.043818 0.008206 0.000000 0.039368 0.000001 0.000005 0.000000 -0.000001 -0.031312 9.217062 -0.000879 -0.225110 -1.521911 2.102201 -0.168673 -0.367204 1.429942 -0.000001 6.846369 -0.000002 -1.950465 -0.030300 0.007159 -1.454894 -3.629987 -19.502055 7.313727 -0.000023 -0.000002 -9.639358 15.456576 -60.881499 10.822620 -0.000050 -0.000004 -0.467028 -16.580212 -0.142770 10.147806 -0.000040 -0.000001 0.000001 -0.000001 0.000000 0.000000 -0.000000 -0.000002 -0.000000 -0.000001 -0.000001 3.937004 -0.000008 -0.000002 -0.000001 -0.000001 -0.000001 -1.448260 5.332047 20.044075 -7.313737 -0.000019 -0.000002 -1.998584 -13.978831 59.898047 -10.822618 -0.000030 -0.000001 -0.387196 19.390209 0.205752 -10.147809 -0.000041 -0.000001 0.000001 -0.000002 -0.000002 -0.000002 -0.000000 0.000000 -0.000000 -0.000003 0.000001 -5.393688 -0.000016 0.000000 0.000000 -0.000005 -0.000001 
0.620241 34.473640 0.585256 1.047907 -0.003896 -3.067839 3.317154 0.000019 -0.000001 -4.784263 -3.009634 8.277682 0.000002 -16.621298 -0.000001 15.327969 8.126567 0.647219 -0.000015 -16.132086 -0.000006 -10.197958 2.705250 -7.589318 0.000000 -1.705429 6.364749 0.000000 0.000001 -0.000000 -3.317155 0.000005 0.000000 -1.297391 7.913984 2.888652 -0.000002 -16.621313 -0.000002 5.586942 -14.514236 2.456835 -0.000048 -16.132013 -0.000107 -5.571145 -2.608357 -0.826049 0.000001 -1.705432 6.364748 0.036639 -0.055122 0.010359 -0.000001 0.039372 0.000002 0.000007 0.000001 -0.000000 -0.031309 9.217028 -0.000855 -0.221427 -1.519961 2.100053 -0.213592 -0.361244 1.410188 -0.000000 6.846354 -0.000001 -1.985590 -0.026114 -0.013169 -1.426554 -3.614087 -19.412188 7.313735 -0.000031 0.000000 -9.642031 15.448303 -60.972668 10.822605 -0.000031 -0.000003 -0.472096 -16.581310 -0.141786 10.147810 -0.000040 0.000000 0.000000 0.000001 -0.000001 0.000004 0.000000 0.000000 -0.000000 0.000001 -0.000001 3.937005 -0.000007 -0.000000 0.000001 0.000001 -0.000001 -1.444926 5.331139 20.033177 -7.313738 -0.000019 -0.000002 -1.998159 -13.971235 59.905506 -10.822636 -0.000016 -0.000002 -0.389012 19.390601 0.204330 -10.147812 -0.000040 -0.000001 0.000001 0.000001 -0.000000 -0.000002 -0.000000 0.000001 0.000000 0.000000 -0.000000 -5.393692 -0.000016 0.000001 0.000000 0.000001 0.000001 
0.616777 34.472633 0.579890 1.057292 -0.003681 -3.060296 3.317155 0.000008 0.000001 -4.815648 -3.008442 8.266289 -0.000001 -16.621311 -0.000001 15.343340 8.140088 0.667819 -0.000016 -16.132076 -0.000010 -10.193269 2.678795 -7.608127 -0.000000 -1.705429 6.364750 0.000001 0.000000 -0.000000 -3.317156 0.000014 0.000001 -1.377628 7.895960 2.900757 -0.000001 -16.621305 -0.000000 5.708879 -14.514292 2.445901 -0.000046 -16.132095 -0.000106 -5.621169 -2.607119 -0.811980 0.000002 -1.705436 6.364746 0.059084 -0.088709 0.016771 0.000000 0.039361 0.000000 -0.000001 -0.000000 0.000000 -0.031335 9.217005 -0.000832 -0.216302 -1.518075 2.099271 -0.252262 -0.355664 1.391657 -0.000000 6.846361 0.000001 -2.031068 -0.022508 -0.031119 -1.453304 -3.623676 -19.504517 7.313734 -0.000032 -0.000001 -9.653042 15.444152 -60.875126 10.822615 -0.000033 -0.000002 -0.472769 -16.582540 -0.140910 10.147808 -0.000038 0.000001 -0.000000 -0.000001 -0.000001 0.000003 0.000000 -0.000001 0.000000 0.000002 -0.000002 3.937001 -0.000009 -0.000000 -0.000000 0.000002 -0.000002 -1.443285 5.331430 20.027650 -7.313732 -0.000017 -0.000002 -1.997594 -13.963620 59.910997 -10.822600 -0.000017 -0.000001 -0.391559 19.391153 0.203289 -10.147806 -0.000038 0.000000 0.000001 0.000001 -0.000001 -0.000000 -0.000002 0.000000 0.000001 -0.000002 0.000000 -5.393692 -0.000017 0.000000 0.000002 -0.000001 0.000002 
